<svg xmlns="http://www.w3.org/2000/svg" viewBox="0 0 800 600">
  <!-- Background -->
  <rect width="800" height="600" fill="#f5f5f5"/>
  
  <!-- Title -->
  <text x="400" y="40" font-family="Arial" font-size="24" text-anchor="middle" font-weight="bold">API Gateway Architecture Flow</text>
  
  <!-- Client -->
  <rect x="50" y="100" width="100" height="60" rx="10" fill="#ffe7ba" stroke="#fa8c16" stroke-width="2"/>
  <text x="100" y="135" font-family="Arial" font-size="16" text-anchor="middle">Client</text>
  
  <!-- DNS -->
  <rect x="250" y="100" width="100" height="60" rx="10" fill="#bae7ff" stroke="#1890ff" stroke-width="2"/>
  <text x="300" y="135" font-family="Arial" font-size="16" text-anchor="middle">DNS</text>
  <text x="300" y="85" font-family="Arial" font-size="12" text-anchor="middle">api.company.com</text>
  
  <!-- Arrow from Client to DNS -->
  <line x1="150" y1="130" x2="250" y2="130" stroke="#000" stroke-width="2" marker-end="url(#arrowhead)"/>
  <text x="200" y="120" font-family="Arial" font-size="12" text-anchor="middle">1. Request</text>
  
  <!-- Multiple Cloud Instances Container -->
  <rect x="80" y="200" width="640" height="380" rx="10" fill="#f0f5ff" stroke="#1890ff" stroke-width="2" stroke-dasharray="10,5"/>
  <text x="400" y="220" font-family="Arial" font-size="16" text-anchor="middle" font-weight="bold">Cloud Provider (Multiple Instances)</text>
  
  <!-- Instance 1 -->
  <rect x="100" y="240" width="280" height="320" rx="10" fill="#f9f0ff" stroke="#722ed1" stroke-width="2"/>
  <text x="240" y="260" font-family="Arial" font-size="14" text-anchor="middle">Instance 1</text>
  
  <!-- Instance 2 -->
  <rect x="420" y="240" width="280" height="320" rx="10" fill="#f9f0ff" stroke="#722ed1" stroke-width="2"/>
  <text x="560" y="260" font-family="Arial" font-size="14" text-anchor="middle">Instance 2</text>
  
  <!-- Region in Instance 1 -->
  <rect x="120" y="280" width="240" height="260" rx="5" fill="#fff1f0" stroke="#f5222d" stroke-width="1"/>
  <text x="240" y="300" font-family="Arial" font-size="12" text-anchor="middle">Region A (us-east-1)</text>
  
  <!-- Region in Instance 2 -->
  <rect x="440" y="280" width="240" height="260" rx="5" fill="#fff1f0" stroke="#f5222d" stroke-width="1"/>
  <text x="560" y="300" font-family="Arial" font-size="12" text-anchor="middle">Region B (eu-west-1)</text>
  
  <!-- API Gateway in Region 1 -->
  <rect x="140" y="320" width="200" height="50" rx="5" fill="#adc6ff" stroke="#2f54eb" stroke-width="2"/>
  <text x="240" y="350" font-family="Arial" font-size="14" text-anchor="middle">API Gateway</text>
  
  <!-- API Gateway in Region 2 -->
  <rect x="460" y="320" width="200" height="50" rx="5" fill="#adc6ff" stroke="#2f54eb" stroke-width="2"/>
  <text x="560" y="350" font-family="Arial" font-size="14" text-anchor="middle">API Gateway</text>
  
  <!-- Availability Zones in Region 1 -->
  <rect x="140" y="390" width="90" height="130" rx="5" fill="#e6fffb" stroke="#13c2c2" stroke-width="1"/>
  <text x="185" y="410" font-family="Arial" font-size="12" text-anchor="middle">AZ 1a</text>
  
  <rect x="250" y="390" width="90" height="130" rx="5" fill="#e6fffb" stroke="#13c2c2" stroke-width="1"/>
  <text x="295" y="410" font-family="Arial" font-size="12" text-anchor="middle">AZ 1b</text>
  
  <!-- Availability Zones in Region 2 -->
  <rect x="460" y="390" width="90" height="130" rx="5" fill="#e6fffb" stroke="#13c2c2" stroke-width="1"/>
  <text x="505" y="410" font-family="Arial" font-size="12" text-anchor="middle">AZ 2a</text>
  
  <rect x="570" y="390" width="90" height="130" rx="5" fill="#e6fffb" stroke="#13c2c2" stroke-width="1"/>
  <text x="615" y="410" font-family="Arial" font-size="12" text-anchor="middle">AZ 2b</text>
  
  <!-- Load Balancers in AZs -->
  <rect x="150" y="430" width="70" height="30" rx="5" fill="#ffd8bf" stroke="#fa8c16" stroke-width="2"/>
  <text x="185" y="450" font-family="Arial" font-size="10" text-anchor="middle">Load Balancer</text>
  
  <rect x="260" y="430" width="70" height="30" rx="5" fill="#ffd8bf" stroke="#fa8c16" stroke-width="2"/>
  <text x="295" y="450" font-family="Arial" font-size="10" text-anchor="middle">Load Balancer</text>
  
  <rect x="470" y="430" width="70" height="30" rx="5" fill="#ffd8bf" stroke="#fa8c16" stroke-width="2"/>
  <text x="505" y="450" font-family="Arial" font-size="10" text-anchor="middle">Load Balancer</text>
  
  <rect x="580" y="430" width="70" height="30" rx="5" fill="#ffd8bf" stroke="#fa8c16" stroke-width="2"/>
  <text x="615" y="450" font-family="Arial" font-size="10" text-anchor="middle">Load Balancer</text>
  
  <!-- Microservices -->
  <rect x="150" y="480" width="70" height="30" rx="5" fill="#b7eb8f" stroke="#52c41a" stroke-width="2"/>
  <text x="185" y="500" font-family="Arial" font-size="10" text-anchor="middle">Microservices</text>
  
  <rect x="260" y="480" width="70" height="30" rx="5" fill="#b7eb8f" stroke="#52c41a" stroke-width="2"/>
  <text x="295" y="500" font-family="Arial" font-size="10" text-anchor="middle">Microservices</text>
  
  <rect x="470" y="480" width="70" height="30" rx="5" fill="#b7eb8f" stroke="#52c41a" stroke-width="2"/>
  <text x="505" y="500" font-family="Arial" font-size="10" text-anchor="middle">Microservices</text>
  
  <rect x="580" y="480" width="70" height="30" rx="5" fill="#b7eb8f" stroke="#52c41a" stroke-width="2"/>
  <text x="615" y="500" font-family="Arial" font-size="10" text-anchor="middle">Microservices</text>
  
  <!-- Connections -->
  <!-- DNS to Cloud Instances -->
  <line x1="300" y1="160" x2="300" y2="200" stroke="#000" stroke-width="2" marker-end="url(#arrowhead)"/>
  <text x="315" y="180" font-family="Arial" font-size="12" text-anchor="start">2. Route to Instance</text>
  
  <!-- Arrows inside instance 1 -->
  <line x1="240" y1="370" x2="240" y2="390" stroke="#000" stroke-width="2" marker-end="url(#arrowhead)"/>
  <text x="255" y="380" font-family="Arial" font-size="12" text-anchor="start">3. Route to AZ</text>
  
  <line x1="185" y1="460" x2="185" y2="480" stroke="#000" stroke-width="2" marker-end="url(#arrowhead)"/>
  <text x="200" y="470" font-family="Arial" font-size="10" text-anchor="start">4. Balance Load</text>
  
  <line x1="295" y1="460" x2="295" y2="480" stroke="#000" stroke-width="2" marker-end="url(#arrowhead)"/>
  <text x="310" y="470" font-family="Arial" font-size="10" text-anchor="start">4. Balance Load</text>
  
  <!-- Arrows inside instance 2 -->
  <line x1="505" y1="460" x2="505" y2="480" stroke="#000" stroke-width="2" marker-end="url(#arrowhead)"/>
  <text x="520" y="470" font-family="Arial" font-size="10" text-anchor="start">4. Balance Load</text>
  
  <line x1="615" y1="460" x2="615" y2="480" stroke="#000" stroke-width="2" marker-end="url(#arrowhead)"/>
  <text x="630" y="470" font-family="Arial" font-size="10" text-anchor="start">4. Balance Load</text>
  
  <!-- Legend -->
  <rect x="150" y="540" width="500" height="40" rx="5" fill="#fff" stroke="#d9d9d9" stroke-width="1"/>
  
  <!-- Legend items -->
  <rect x="170" y="550" width="15" height="15" fill="#adc6ff" stroke="#2f54eb" stroke-width="2"/>
  <text x="195" y="562" font-family="Arial" font-size="10" text-anchor="start">API Gateway</text>
  
  <rect x="270" y="550" width="15" height="15" fill="#b7eb8f" stroke="#52c41a" stroke-width="2"/>
  <text x="295" y="562" font-family="Arial" font-size="10" text-anchor="start">Microservices</text>
  
  <rect x="370" y="550" width="15" height="15" fill="#ffd8bf" stroke="#fa8c16" stroke-width="2"/>
  <text x="395" y="562" font-family="Arial" font-size="10" text-anchor="start">Load Balancer</text>
  
  <rect x="470" y="550" width="15" height="15" fill="#e6fffb" stroke="#13c2c2" stroke-width="2"/>
  <text x="495" y="562" font-family="Arial" font-size="10" text-anchor="start">Availability Zone</text>
  
  <rect x="570" y="550" width="15" height="15" fill="#fff1f0" stroke="#f5222d" stroke-width="2"/>
  <text x="595" y="562" font-family="Arial" font-size="10" text-anchor="start">Region</text>
  
  <!-- Arrowhead definition -->
  <defs>
    <marker id="arrowhead" markerWidth="10" markerHeight="7" refX="9" refY="3.5" orient="auto">
      <polygon points="0 0, 10 3.5, 0 7" fill="#000"/>
    </marker>
  </defs>
</svg>
